<?xml version="1.0"?>
<svg xmlns="http://www.w3.org/2000/svg" height="50px" viewBox="0 -21 512 512" width="50px" class="">
	<g>
		<path d="m106.667969 384h298.664062v42.667969h-298.664062zm0 0" data-original="#000000" class="" fill="#000000"/>
		<path d="m488.640625 426.667969-40.746094-407.457031c-1.089843-10.90625-10.269531-19.210938-21.226562-19.210938h-341.335938c-10.957031 0-20.132812 8.304688-21.226562 19.210938l-40.746094 407.457031h-23.359375v42.664062h85.332031v-42.664062h-19.09375l38.402344-384h44.691406v259.667969c-24.828125 8.804687-42.664062 32.519531-42.664062 60.332031h21.332031c0-23.566407 19.101562-42.667969 42.667969-42.667969 23.5625 0 42.664062 19.101562 42.664062 42.667969h21.335938c0-27.8125-17.839844-51.527344-42.667969-60.332031v-259.667969h128v259.667969c-24.828125 8.804687-42.667969 32.519531-42.667969 60.332031h21.335938c0-23.566407 19.101562-42.667969 42.664062-42.667969 23.566407 0 42.667969 19.101562 42.667969 42.667969h21.332031c0-27.8125-17.835937-51.523438-42.664062-60.332031v-259.667969h44.691406l38.402344 384h-19.09375v42.664062h85.332031v-42.664062zm0 0" data-original="#000000" class="" fill="#000000"/>
	</g>
</svg>
