<?xml version="1.0"?>
<svg xmlns="http://www.w3.org/2000/svg" xmlns:xlink="http://www.w3.org/1999/xlink" version="1.1" id="Capa_1" x="0px" y="0px" width="50px" height="50px" viewBox="0 0 486.717 486.717" style="enable-background:new 0 0 486.717 486.717;" xml:space="preserve" class=""><g transform="matrix(0.9998 2.46470e-32 -2.46470e-32 0.9998 0.0486692 0.0486692)"><g>
	<path d="M311.262,0L0,311.262l175.454,175.455l311.263-311.264L311.262,0z M311.264,51.95l38.984,38.985   c-23.635,13.933-53.443,13.51-76.705-1.266L311.264,51.95z M90.935,350.25l-38.986-38.984l37.72-37.721   C104.444,296.805,104.864,326.611,90.935,350.25z M175.454,434.768l-38.986-38.986c23.635-13.93,53.443-13.508,76.705,1.268   L175.454,434.768z M252.967,308.411c-0.173,1.097-0.693,2.087-1.449,2.843c-0.582,0.582-1.305,1.023-2.119,1.279l-31.491,9.787   l-9.787,31.49c-0.583,1.877-2.183,3.262-4.125,3.568c-1.941,0.309-3.889-0.514-5.025-2.119l-19.04-26.925l-32.971,0.422   c-1.968,0.024-3.777-1.067-4.669-2.819c-0.895-1.752-0.714-3.856,0.461-5.433l19.723-26.429l-10.589-31.229   c-0.633-1.861-0.151-3.922,1.238-5.31c1.391-1.392,3.448-1.871,5.311-1.24l31.229,10.591l26.427-19.724   c1.577-1.175,3.682-1.354,5.434-0.462c1.751,0.893,2.845,2.701,2.82,4.669l-0.421,32.971l26.922,19.04   C252.453,304.52,253.275,306.468,252.967,308.411z M357.379,203.998c-0.176,1.1-0.693,2.089-1.449,2.845   c-0.58,0.582-1.305,1.025-2.117,1.279l-31.49,9.787l-9.789,31.492c-0.584,1.877-2.184,3.26-4.125,3.568   c-1.941,0.307-3.889-0.516-5.023-2.119l-19.041-26.926l-32.972,0.422c-1.968,0.025-3.777-1.067-4.669-2.819   c-0.895-1.753-0.713-3.857,0.462-5.434l19.722-26.428l-10.589-31.229c-0.632-1.86-0.151-3.92,1.24-5.311   c1.39-1.389,3.448-1.871,5.309-1.237l31.229,10.588l26.428-19.721c1.576-1.177,3.682-1.356,5.434-0.462   c1.752,0.892,2.846,2.7,2.82,4.668l-0.422,32.971l26.926,19.041C356.863,200.108,357.688,202.056,357.379,203.998z    M395.781,136.467l38.986,38.986l-37.719,37.72C382.273,189.912,381.852,160.104,395.781,136.467z" data-original="#000000" class="active-path" data-old_color="#FFFFFF" fill="#ffffff"/>
</g></g> </svg>
